<svg xmlns="http://www.w3.org/2000/svg" xmlns:xlink="http://www.w3.org/1999/xlink" version="1.1" x="0px" y="0px"
 viewBox="0 0 100 100" style="enable-background:new 0 0 100 100;" xml:space="preserve" fill="#ffffff">
 <path d="M36.65,38.48c1.35,0,2.46-1.1,2.46-2.46s-1.1-2.46-2.46-2.46c-1.35,0-2.46,1.1-2.46,2.46S35.3,38.48,36.65,38.48z 
   M36.65,34.9c0.62,0,1.12,0.5,1.12,1.12s-0.5,1.12-1.12,1.12c-0.62,0-1.12-0.5-1.12-1.12S36.03,34.9,36.65,34.9z"/>
   <path d="M63.33,38.46c1.35,0,2.46-1.1,2.46-2.46s-1.1-2.46-2.46-2.46c-1.35,0-2.46,1.1-2.46,2.46S61.97,38.46,63.33,38.46z  
    M63.33,34.88c0.62,0,1.12,0.5,1.12,1.12s-0.5,1.12-1.12,1.12s-1.12-0.5-1.12-1.12S62.71,34.88,63.33,34.88z"/>
    <path d="M39.11,62.67c0-1.35-1.1-2.46-2.46-2.46c-1.35,0-2.46,1.1-2.46,2.46c0,1.35,1.1,2.46,2.46,2.46  
    C38,65.13,39.11,64.02,39.11,62.67z M35.53,62.67c0-0.62,0.5-1.12,1.12-1.12c0.62,0,1.12,0.5,1.12,1.12c0,0.62-0.5,1.12-1.12,1.12  C36.03,63.79,35.53,63.29,35.53,62.67z"/><path d="M63.33,65.1c1.35,0,2.46-1.1,2.46-2.46c0-1.35-1.1-2.46-2.46-2.46c-1.35,0-2.46,1.1-2.46,2.46  C60.87,64,61.97,65.1,63.33,65.1z M63.33,61.53c0.62,0,1.12,0.5,1.12,1.12c0,0.62-0.5,1.12-1.12,1.12s-1.12-0.5-1.12-1.12  C62.21,62.03,62.71,61.53,63.33,61.53z"/><path d="M13.48,50.48c1.31,0,2.41-0.91,2.72-2.13h13.42v1.96h-4.66c-0.37,0-0.67,0.3-0.67,0.67s0.3,0.67,0.67,0.67h4.66v1.97h-6.75  c-0.3-1.23-1.4-2.14-2.72-2.14c-1.55,0-2.81,1.26-2.81,2.81c0,1.55,1.26,2.81,2.81,2.81c1.32,0,2.42-0.91,2.72-2.14h6.75v1.96h-4.66  c-0.37,0-0.67,0.3-0.67,0.67s0.3,0.67,0.67,0.67h4.66v1.96H18.85c-0.31-1.21-1.4-2.12-2.71-2.12c-1.55,0-2.81,1.26-2.81,2.81  c0,1.55,1.26,2.81,2.81,2.81c1.32,0,2.43-0.92,2.72-2.16h10.74v1.89c0,0.09,0.02,0.17,0.05,0.25c0.03,0.08,0.08,0.16,0.14,0.22  
l5.63,5.63c0.06,0.06,0.14,0.11,0.22,0.14c0.08,0.03,0.17,0.05,0.25,0.05h1.88v4.67c0,0.37,0.3,0.67,0.67,0.67  
c0.37,0,0.67-0.3,0.67-0.67v-4.67h1.97v6.75c-1.23,0.3-2.15,1.4-2.15,2.72c0,1.55,1.26,2.81,2.81,2.81s2.81-1.26,2.81-2.81
c0-1.31-0.91-2.41-2.13-2.71v-6.76h1.96v4.67c0,0.37,0.3,0.67,0.67,0.67c0.37,0,0.67-0.3,0.67-0.67v-4.67h1.96v14.76 
c-1.22,0.3-2.14,1.4-2.14,2.72c0,1.55,1.26,2.81,2.81,2.81c1.55,0,2.81-1.26,2.81-2.81c0-1.32-0.91-2.42-2.14-2.72V69.72h1.97v4.67 
c0,0.37,0.3,0.67,0.67,0.67c0.37,0,0.67-0.3,0.67-0.67v-4.67h1.96v6.76c-1.23,0.3-2.14,1.4-2.14,2.72c0,1.55,1.26,2.81,2.81,2.81
c1.55,0,2.81-1.26,2.81-2.81c0-1.32-0.91-2.42-2.14-2.72v-6.76h1.96v4.67c0,0.37,0.3,0.67,0.67,0.67s0.67-0.3,0.67-0.67v-4.67h1.97
v10.76c-1.23,0.3-2.14,1.4-2.14,2.72c0,1.55,1.26,2.81,2.81,2.81c1.55,0,2.81-1.26,2.81-2.81c0-1.32-0.91-2.42-2.14-2.72V69.72h1.88
c0.09,0,0.17-0.02,0.25-0.05c0.08-0.03,0.16-0.08,0.22-0.14l5.63-5.63c0.01-0.01,0.01-0.01,0.01-0.02c0.05-0.06,0.1-0.12,0.13-0.2  
c0.03-0.08,0.05-0.17,0.05-0.26c0,0,0,0,0,0v-1.89h4.66c0.37,0,0.67-0.3,0.67-0.67c0-0.37-0.3-0.67-0.67-0.67h-4.66v-1.96h6.75  
c0.3,1.23,1.4,2.15,2.72,2.15c1.55,0,2.81-1.26,2.81-2.81s-1.26-2.81-2.81-2.81c-1.31,0-2.41,0.91-2.71,2.13h-6.76v-1.96h4.66  
c0.37,0,0.67-0.3,0.67-0.67c0-0.37-0.3-0.67-0.67-0.67h-4.66v-1.97H83.8c0.3,1.23,1.4,2.15,2.72,2.15c1.55,0,2.81-1.26,2.81-2.81  
c0-1.55-1.26-2.81-2.81-2.81c-1.31,0-2.41,0.91-2.71,2.13H70.39v-1.96h4.66c0.37,0,0.67-0.3,0.67-0.67c0-0.37-0.3-0.67-0.67-0.67 
h-4.66v-1.96h6.75c0.3,1.23,1.4,2.14,2.72,2.14c1.55,0,2.81-1.26,2.81-2.81c0-1.55-1.26-2.81-2.81-2.81c-1.32,0-2.42,0.91-2.72,2.14 
h-6.75v-1.97h4.66c0.37,0,0.67-0.3,0.67-0.67s-0.3-0.67-0.67-0.67h-4.66v-1.96h10.75c0.3,1.23,1.4,2.14,2.72,2.14
c1.55,0,2.81-1.26,2.81-2.81c0-1.55-1.26-2.81-2.81-2.81c-1.32,0-2.42,0.91-2.72,2.14H70.39v-1.89c0-0.09-0.02-0.17-0.05-0.25  
c-0.03-0.08-0.08-0.16-0.14-0.22l-5.63-5.63c-0.06-0.06-0.14-0.11-0.22-0.14c-0.08-0.03-0.17-0.05-0.25-0.05h-1.88v-4.66 
c0-0.37-0.3-0.67-0.67-0.67c-0.37,0-0.67,0.3-0.67,0.67v4.66H58.9v-6.74c1.22-0.3,2.14-1.4,2.14-2.72c0-1.55-1.26-2.81-2.81-2.81
c-1.55,0-2.81,1.26-2.81,2.81c0,1.32,0.91,2.42,2.14,2.72v6.74h-1.96v-4.66c0-0.37-0.3-0.67-0.67-0.67c-0.37,0-0.67,0.3-0.67,0.67  
v4.66h-1.96V15.52c1.22-0.3,2.14-1.4,2.14-2.72c0-1.55-1.26-2.81-2.81-2.81c-1.55,0-2.81,1.26-2.81,2.81c0,1.32,0.91,2.42,2.14,2.72  
v13.41h-1.97v-4.66c0-0.37-0.3-0.67-0.67-0.67c-0.37,0-0.67,0.3-0.67,0.67v4.66h-1.96v-6.74c1.23-0.3,2.14-1.4,2.14-2.72  
c0-1.55-1.26-2.81-2.81-2.81c-1.55,0-2.81,1.26-2.81,2.81c0,1.32,0.91,2.42,2.14,2.72v6.74h-1.96v-4.66c0-0.37-0.3-0.67-0.67-0.67  
s-0.67,0.3-0.67,0.67v4.66h-1.97V18.15c1.16-0.34,2.02-1.41,2.02-2.68c0-1.55-1.26-2.81-2.81-2.81c-1.55,0-2.81,1.26-2.81,2.81  
c0,1.36,0.98,2.5,2.26,2.75v10.71h-1.88c-0.09,0-0.17,0.02-0.25,0.05c-0.08,0.03-0.16,0.08-0.22,0.14l-5.63,5.63  
c-0.06,0.06-0.11,0.14-0.14,0.22c-0.03,0.08-0.05,0.17-0.05,0.25v1.89h-4.66c-0.37,0-0.67,0.3-0.67,0.67c0,0.37,0.3,0.67,0.67,0.67  
h4.66v1.96h-6.75c-0.3-1.23-1.4-2.15-2.72-2.15c-1.55,0-2.81,1.26-2.81,2.81c0,1.55,1.26,2.81,2.81,2.81c1.31,0,2.41-0.91,2.71-2.12  
h6.76v1.97h-4.66c-0.37,0-0.67,0.3-0.67,0.67c0,0.37,0.3,0.67,0.67,0.67h4.66v1.96H16.2c-0.3-1.23-1.4-2.15-2.72-2.15  
c-1.55,0-2.81,1.26-2.81,2.81C10.67,49.22,11.93,50.48,13.48,50.48z M20.14,55.75c-0.81,0-1.47-0.66-1.47-1.47  
c0-0.81,0.66-1.47,1.47-1.47c0.81,0,1.47,0.66,1.47,1.47C21.61,55.09,20.95,55.75,20.14,55.75z M16.14,62.35  
c-0.81,0-1.47-0.66-1.47-1.47s0.66-1.47,1.47-1.47c0.81,0,1.47,0.66,1.47,1.47S16.95,62.35,16.14,62.35z M79.86,56.11  
c0.81,0,1.47,0.66,1.47,1.47s-0.66,1.47-1.47,1.47c-0.81,0-1.47-0.66-1.47-1.47S79.05,56.11,79.86,56.11z M86.52,49.51  
c0.81,0,1.47,0.66,1.47,1.47s-0.66,1.47-1.47,1.47s-1.47-0.66-1.47-1.47S85.71,49.51,86.52,49.51z M79.86,42.91  
c0.81,0,1.47,0.66,1.47,1.47c0,0.81-0.66,1.47-1.47,1.47c-0.81,0-1.47-0.66-1.47-1.47C78.39,43.57,79.05,42.91,79.86,42.91z   
M83.86,36.32c0.81,0,1.47,0.66,1.47,1.47c0,0.81-0.66,1.47-1.47,1.47c-0.81,0-1.47-0.66-1.47-1.47  
C82.39,36.98,83.05,36.32,83.86,36.32z M43.22,79.19c0,0.81-0.66,1.47-1.47,1.47s-1.47-0.66-1.47-1.47c0-0.81,0.66-1.47,1.47-1.47  
S43.22,78.38,43.22,79.19z M49.82,87.19c0,0.81-0.66,1.47-1.47,1.47c-0.81,0-1.47-0.66-1.47-1.47s0.66-1.47,1.47-1.47  
C49.16,85.72,49.82,86.38,49.82,87.19z M56.42,79.19c0,0.81-0.66,1.47-1.47,1.47c-0.81,0-1.47-0.66-1.47-1.47  
c0-0.81,0.66-1.47,1.47-1.47C55.76,77.72,56.42,78.38,56.42,79.19z M63.01,83.2c0,0.81-0.66,1.47-1.47,1.47 
c-0.81,0-1.47-0.66-1.47-1.47c0-0.81,0.66-1.47,1.47-1.47C62.35,81.72,63.01,82.38,63.01,83.2z M56.76,19.48
c0-0.81,0.66-1.47,1.47-1.47s1.47,0.66,1.47,1.47c0,0.81-0.65,1.46-1.46,1.47c0,0-0.01,0-0.01,0c0,0-0.01,0-0.01,0 
C57.42,20.94,56.76,20.28,56.76,19.48z M50.18,12.81c0-0.81,0.66-1.47,1.47-1.47c0.81,0,1.47,0.66,1.47,1.47s-0.66,1.47-1.47,1.47  C50.84,14.28,50.18,13.62,50.18,12.81z M43.58,19.48c0-0.81,0.66-1.47,1.47-1.47c0.81,0,1.47,0.66,1.47,1.47  c0,0.81-0.65,1.46-1.46,1.47c0,0-0.01,0-0.01,0c0,0-0.01,0-0.01,0C44.24,20.94,43.58,20.28,43.58,19.48z M36.86,15.47  c0-0.81,0.66-1.47,1.47-1.47s1.47,0.66,1.47,1.47c0,0.81-0.66,1.47-1.47,1.47S36.86,16.28,36.86,15.47z M30.94,35.51l5.25-5.25h2.24  c0.01,0,0.02,0.01,0.03,0.01c0.01,0,0.02-0.01,0.03-0.01h3.25c0.01,0,0.02,0.01,0.03,0.01s0.02-0.01,0.03-0.01h3.23  c0.01,0,0.02,0.01,0.03,0.01c0.01,0,0.02-0.01,0.03-0.01h3.23c0.01,0,0.02,0.01,0.03,0.01c0.01,0,0.02-0.01,0.03-0.01h3.25  c0.01,0,0.02,0.01,0.03,0.01c0.01,0,0.02-0.01,0.03-0.01h3.23c0.01,0,0.02,0.01,0.03,0.01c0.01,0,0.02-0.01,0.03-0.01h3.23  c0.01,0,0.02,0.01,0.03,0.01s0.02-0.01,0.03-0.01h3.25c0.01,0,0.02,0.01,0.03,0.01c0.01,0,0.02-0.01,0.03-0.01h2.24l5.25,5.25v27.63  l-5.25,5.25H36.19l-5.25-5.25V35.51z M20.14,42.54c-0.81,0-1.47-0.66-1.47-1.47s0.66-1.47,1.47-1.47c0.81,0,1.47,0.66,1.47,1.47  S20.95,42.54,20.14,42.54z M13.48,46.2c0.81,0,1.47,0.66,1.47,1.47s-0.66,1.47-1.47,1.47S12,48.48,12,47.67S12.66,46.2,13.48,46.2z"/>
</svg>