<svg xmlns="http://www.w3.org/2000/svg" version="1.1" viewBox="-5.0 -10.0 110.0 135.0" fill="#ffffff">
 <path d="m47.957 5.5156c-1.6055-1.25-3.5781-1.6641-5.5508-1.1602-4.3047 1.0938-7.4961 4.5586-8.3281 8.793-1.6133-0.84766-3.4023-1.2891-5.2578-1.2891-6.2539 0-11.34 5.0859-11.34 11.34 0 1.1211 0.16406 2.2227 0.48047 3.2734-4.5625 1.5195-7.7695 5.8789-7.7695 10.766 0 0.46875 0.027344 0.93359 0.085938 1.3984-4.2266 2.0352-7.1523 6.3633-7.1523 11.363s2.9258 9.3281 7.1523 11.363c-0.058594 0.46094-0.085938 0.92969-0.085938 1.3984 0 4.8867 3.207 9.2461 7.7695 10.766-0.31641 1.0508-0.48047 2.1523-0.48047 3.2695 0 6.2539 5.0859 11.34 11.34 11.34 1.8555 0 3.6484-0.44141 5.2578-1.2891 0.83203 4.2305 4.0234 7.6992 8.3281 8.793 0.54688 0.13672 1.0938 0.20703 1.6328 0.20703 1.4023 0 2.7539-0.46484 3.918-1.3672 1.6055-1.25 2.4922-3.0586 2.4922-5.0938v-78.777c0-2.0352-0.88672-3.8438-2.4922-5.0938zm0.45312 83.875c0 1.4141-0.58984 2.6172-1.7031 3.4844-1.1172 0.86719-2.4297 1.1445-3.7969 0.79297-3.9727-1.0078-6.793-4.4883-6.9922-8.5508 0-0.015626 0-0.027344-0.003907-0.042969-0.007812-0.14062-0.007812-0.28125-0.007812-0.42188 0-2.9609 1.4297-5.7734 3.8281-7.5195 0.45312-0.33203 0.55469-0.96875 0.22266-1.4258-0.33203-0.45312-0.96875-0.55469-1.4258-0.22266-2.9102 2.125-4.6523 5.5352-4.6641 9.1328-1.5039 0.97266-3.2383 1.4844-5.0469 1.4844-5.1289 0-9.3047-4.1719-9.3047-9.3047 0-2.3203 0.86719-4.543 2.4102-6.2422 0.94922 0.99219 2.2852 1.6172 3.7656 1.6172 2.875 0 5.2109-2.3359 5.2109-5.2109s-2.3359-5.2109-5.2109-5.2109-5.2109 2.3359-5.2109 5.2109c0 0.63672 0.11719 1.25 0.32812 1.8164-0.84766 0.84375-1.5508 1.8086-2.0859 2.8555-3.8086-1.207-6.4922-4.8164-6.4922-8.8711 0-0.21484 0.007812-0.42969 0.023437-0.64453 1.1055 0.31641 2.2734 0.48828 3.4805 0.48828 0.90234 0 1.8047-0.097657 2.6797-0.28516 0.55078-0.11719 0.89844-0.66016 0.78125-1.2109-0.11719-0.55078-0.66016-0.89844-1.2109-0.78125-0.73438 0.16016-1.4883 0.23828-2.2461 0.23828-5.8359 0.003906-10.574-4.7383-10.574-10.566s4.7422-10.57 10.57-10.57c0.75781 0 1.5117 0.082031 2.2461 0.23828 0.55078 0.12109 1.0938-0.23047 1.2109-0.78125 0.11719-0.55078-0.23047-1.0938-0.78125-1.2109-0.875-0.19141-1.7773-0.28516-2.6797-0.28516-1.207 0-2.375 0.17188-3.4805 0.48828-0.015625-0.21484-0.023438-0.42969-0.023438-0.64453 0-4.0547 2.6875-7.6641 6.4922-8.8711 0.53516 1.0469 1.2383 2.0117 2.0859 2.8555-0.21094 0.56641-0.32813 1.1797-0.32813 1.8164 0 2.875 2.3359 5.2109 5.2109 5.2109s5.2109-2.3359 5.2109-5.2109-2.3359-5.2109-5.2109-5.2109c-1.4805 0-2.8164 0.62109-3.7656 1.6172-1.543-1.7031-2.4102-3.9219-2.4102-6.2422 0-5.1289 4.1719-9.3008 9.3047-9.3008 1.8086 0 3.543 0.51172 5.0469 1.4883 0.011719 3.5977 1.7539 7.0078 4.6641 9.1328 0.45312 0.33203 1.0898 0.23047 1.4258-0.22266 0.33203-0.45312 0.23047-1.0898-0.22266-1.4258-2.3945-1.7461-3.8281-4.5586-3.8281-7.5195 0-0.14062 0.003906-0.28125 0.007812-0.42187 0-0.015626 0.003906-0.027344 0.003906-0.042969 0.19922-4.0664 3.0195-7.543 6.9922-8.5508 1.3672-0.34766 2.6836-0.074219 3.7969 0.79297 1.1133 0.86719 1.7031 2.0703 1.7031 3.4844zm-25.891-22.43c0-1.75 1.4258-3.1758 3.1758-3.1758s3.1758 1.4258 3.1758 3.1758-1.4258 3.1758-3.1758 3.1758c-1.7539-0.003907-3.1758-1.4258-3.1758-3.1758zm3.1719-37.094c1.75 0 3.1758 1.4258 3.1758 3.1758s-1.4258 3.1758-3.1758 3.1758-3.1758-1.4258-3.1758-3.1758c0.003906-1.7539 1.4258-3.1758 3.1758-3.1758zm27.766 21.152h15.449c0.47656 2.4141 2.6055 4.2383 5.1562 4.2383 2.8984 0 5.2578-2.3594 5.2578-5.2578s-2.3594-5.2578-5.2578-5.2578c-2.5508 0-4.6797 1.8242-5.1562 4.2383h-15.449c-0.5625 0-1.0195 0.45703-1.0195 1.0195s0.45312 1.0195 1.0195 1.0195zm20.605-4.2383c1.7734 0 3.2188 1.4453 3.2188 3.2188s-1.4453 3.2188-3.2188 3.2188-3.2188-1.4453-3.2188-3.2188 1.4453-3.2188 3.2188-3.2188zm-20.605-26.77h5.3359c0.35156 0 0.67969-0.18359 0.86719-0.48047l5.7227-9.2422h11.25c0.47656 2.4141 2.6055 4.2383 5.1562 4.2383 2.8984 0 5.2578-2.3594 5.2578-5.2578 0-2.8984-2.3594-5.2578-5.2578-5.2578-2.5508 0-4.6797 1.8242-5.1562 4.2383l-11.82-0.003906c-0.35156 0-0.67969 0.18359-0.86719 0.48047l-5.7227 9.2422h-4.7695c-0.5625 0-1.0195 0.45703-1.0195 1.0195 0 0.56641 0.45703 1.0234 1.0234 1.0234zm28.328-13.965c1.7734 0 3.2188 1.4453 3.2188 3.2188s-1.4453 3.2188-3.2188 3.2188c-1.7734 0-3.2188-1.4453-3.2188-3.2188s1.4453-3.2188 3.2188-3.2188zm-28.328 22.328h14.602l5.7227 9.2461c0.18359 0.30078 0.51172 0.48047 0.86719 0.48047h11.82c0.47656 2.4141 2.6055 4.2383 5.1562 4.2383 2.8984 0 5.2578-2.3594 5.2578-5.2578 0-2.8984-2.3594-5.2578-5.2578-5.2578-2.5508 0-4.6797 1.8242-5.1562 4.2383l-11.258 0.003906-5.7227-9.2461c-0.18359-0.30078-0.51172-0.48047-0.86719-0.48047l-15.164-0.003906c-0.5625 0-1.0195 0.45703-1.0195 1.0195-0.003906 0.5625 0.45312 1.0195 1.0195 1.0195zm38.16 5.4883c1.7734 0 3.2188 1.4453 3.2188 3.2188 0 1.7734-1.4453 3.2188-3.2188 3.2188-1.7734 0-3.2188-1.4453-3.2188-3.2188 0-1.7734 1.4453-3.2188 3.2188-3.2188zm-9.832 51.617c-2.5508 0-4.6797 1.8242-5.1562 4.2383h-11.25l-5.7227-9.2461c-0.18359-0.30078-0.51172-0.48047-0.86719-0.48047h-5.3359c-0.5625 0-1.0195 0.45703-1.0195 1.0195s0.45703 1.0195 1.0195 1.0195h4.7695l5.7227 9.2461c0.18359 0.30078 0.51172 0.48047 0.86719 0.48047h11.82c0.47656 2.4141 2.6055 4.2383 5.1562 4.2383 2.8984 0 5.2578-2.3594 5.2578-5.2578-0.003906-2.9023-2.3633-5.2578-5.2617-5.2578zm0 8.4727c-1.7734 0-3.2188-1.4453-3.2188-3.2188s1.4453-3.2188 3.2188-3.2188c1.7734 0 3.2188 1.4453 3.2188 3.2188 0 1.7773-1.4414 3.2188-3.2188 3.2188zm9.832-36.293c-2.5508 0-4.6797 1.8242-5.1562 4.2383h-11.816c-0.35156 0-0.67969 0.18359-0.86719 0.48047l-5.7227 9.2461h-14.598c-0.5625 0-1.0195 0.45703-1.0195 1.0195s0.45703 1.0195 1.0195 1.0195h15.168c0.35156 0 0.67969-0.18359 0.86719-0.48047l5.7227-9.2461h11.25c0.47656 2.4141 2.6055 4.2383 5.1562 4.2383 2.8984 0 5.2578-2.3594 5.2578-5.2578-0.003906-2.8984-2.3633-5.2578-5.2617-5.2578zm0 8.4766c-1.7734 0-3.2188-1.4453-3.2188-3.2188 0-1.7734 1.4453-3.2188 3.2188-3.2188 1.7734 0 3.2188 1.4453 3.2188 3.2188 0 1.7734-1.4414 3.2188-3.2188 3.2188z"/>
</svg>