<?xml version="1.0" encoding="UTF-8"?>
<svg version="1.1" xmlns="http://www.w3.org/2000/svg" width="800" height="800">
<path d="M0 0 C0.94198242 -0.0066568 1.88396484 -0.0133136 2.85449219 -0.02017212 C4.83770824 -0.03023161 6.82095768 -0.03499124 8.80419922 -0.03466797 C11.77761423 -0.03901154 14.74950569 -0.07532194 17.72265625 -0.11328125 C57.44766234 -0.34762815 90.74036547 17.51200039 118.625 44.9609375 C121.65754472 48.00633198 124.44095755 50.97975806 126.875 54.5234375 C127.514375 55.4515625 128.15375 56.3796875 128.8125 57.3359375 C129.4725 57.3359375 130.1325 57.3359375 130.8125 57.3359375 C131.93038515 56.0271188 132.97919159 54.65930322 134 53.2734375 C153.01739959 29.03826763 179.7658287 10.82456568 209.8125 3.3359375 C210.82981201 3.07176025 211.84712402 2.80758301 212.89526367 2.53540039 C223.31787871 0.11751408 233.5094412 -0.15718305 244.18139648 -0.11010742 C247.11058122 -0.10160436 250.03780352 -0.13045652 252.96679688 -0.16210938 C268.45799848 -0.22059629 282.8454995 1.92053602 297.375 7.5234375 C298.54131958 7.96562622 298.54131958 7.96562622 299.73120117 8.41674805 C318.9510687 15.93604164 335.02514544 27.08984775 349.8125 41.3359375 C350.51761719 41.97789063 351.22273437 42.61984375 351.94921875 43.28125 C375.67765525 65.51763472 390.78428533 101.42889408 391.93261719 133.71289062 C392.05717747 141.25593471 391.98468538 148.79421765 391.8125 156.3359375 C392.42851074 156.43898193 393.04452148 156.54202637 393.67919922 156.64819336 C399.78787656 157.75669311 405.25082032 159.42780206 410.9375 161.8984375 C412.16400269 162.42679199 412.16400269 162.42679199 413.4152832 162.96582031 C453.59253669 180.64926489 483.12146885 212.50105645 499.5 252.9609375 C514.30302464 291.34562141 513.17348121 335.90682293 496.82617188 373.61083984 C494.10898217 379.5304317 491.11906907 385.27985595 487.6796875 390.8125 C487.02226563 391.87210937 486.36484375 392.93171875 485.6875 394.0234375 C484.78644531 395.39048828 484.78644531 395.39048828 483.8671875 396.78515625 C482.55800159 399.25577285 482.55800159 399.25577285 483.34375 401.66796875 C484.90510723 404.50415755 486.49871006 407.31616204 488.13818359 410.10791016 C497.09979569 425.47500373 503.24520169 441.91468701 506.8125 459.3359375 C507.02519531 460.37105469 507.23789062 461.40617187 507.45703125 462.47265625 C514.71856893 503.27309461 505.61171361 546.55635549 482.23046875 580.78442383 C463.23554652 607.62982682 438.66827816 627.52258442 408.125 639.8984375 C406.88713745 640.40056763 406.88713745 640.40056763 405.62426758 640.9128418 C400.99163714 642.71270855 396.76183028 643.85226801 391.8125 644.3359375 C391.82821045 645.02405518 391.8439209 645.71217285 391.86010742 646.42114258 C392.71667314 689.86022872 380.6327232 727.3015306 350.31396484 759.16870117 C328.28163497 781.75332751 294.45022097 800.17767219 262.28027344 800.66513062 C261.4040332 800.66735626 260.52779297 800.66958191 259.625 800.671875 C258.68301758 800.6785318 257.74103516 800.6851886 256.77050781 800.69204712 C254.78729176 800.70210661 252.80404232 800.70686624 250.82080078 800.70654297 C247.84738577 800.71088654 244.87549431 800.74719694 241.90234375 800.78515625 C202.17733766 801.01950315 168.88463453 783.15987461 141 755.7109375 C137.96745528 752.66554302 135.18404245 749.69211694 132.75 746.1484375 C132.110625 745.2203125 131.47125 744.2921875 130.8125 743.3359375 C130.1525 743.3359375 129.4925 743.3359375 128.8125 743.3359375 C127.69461485 744.6447562 126.64580841 746.01257178 125.625 747.3984375 C106.60760041 771.63360737 79.8591713 789.84730932 49.8125 797.3359375 C48.79518799 797.60011475 47.77787598 797.86429199 46.72973633 798.13647461 C36.30712129 800.55436092 26.1155588 800.82905805 15.44360352 800.78198242 C12.51441878 800.77347936 9.58719648 800.80233152 6.65820312 800.83398438 C-8.83299848 800.89247129 -23.2204995 798.75133898 -37.75 793.1484375 C-38.52754639 792.85364502 -39.30509277 792.55885254 -40.10620117 792.25512695 C-59.3260687 784.73583336 -75.40014544 773.58202725 -90.1875 759.3359375 C-90.89261719 758.69398438 -91.59773437 758.05203125 -92.32421875 757.390625 C-116.05265525 735.15424028 -131.15928533 699.24298092 -132.30761719 666.95898438 C-132.43217747 659.41594029 -132.35968538 651.87765735 -132.1875 644.3359375 C-132.79263428 644.23796875 -133.39776855 644.14 -134.02124023 644.0390625 C-140.49855717 642.88233199 -146.23582345 640.97741801 -152.25 638.3359375 C-153.61137085 637.74208252 -153.61137085 637.74208252 -155.00024414 637.13623047 C-195.53442598 619.03193249 -224.99719778 585.94671501 -241 544.77734375 C-254.73139447 507.43591341 -253.16658921 463.6406223 -237.24853516 427.18554688 C-234.49503541 421.23633944 -231.51397978 415.41640327 -228.05078125 409.84765625 C-227.39464844 408.79191406 -226.73851562 407.73617188 -226.0625 406.6484375 C-225.16144531 405.28138672 -225.16144531 405.28138672 -224.2421875 403.88671875 C-222.92573199 401.40548679 -222.92573199 401.40548679 -223.75 398.9453125 C-225.18057307 396.34851139 -226.64038006 393.77283984 -228.15722656 391.2253418 C-249.43584218 355.27383464 -255.59832974 311.17352197 -245.375 270.66796875 C-241.74046333 257.12747783 -236.96113642 244.61780573 -230.1875 232.3359375 C-229.83816406 231.69527344 -229.48882812 231.05460938 -229.12890625 230.39453125 C-224.14512948 221.35801293 -218.40171257 213.47088062 -211.50439453 205.80419922 C-210.26666497 204.42420189 -209.05238043 203.02327843 -207.83984375 201.62109375 C-189.02816982 180.08886027 -162.98472662 163.50964885 -135.1875 156.3359375 C-134.1975 156.3359375 -133.2075 156.3359375 -132.1875 156.3359375 C-132.20321045 155.64781982 -132.2189209 154.95970215 -132.23510742 154.25073242 C-132.92912378 119.05502545 -126.24797728 85.78337357 -104.1875 57.3359375 C-103.49269531 56.42070313 -102.79789063 55.50546875 -102.08203125 54.5625 C-78.21342253 24.21589001 -39.56440558 0.10049344 0 0 Z M-47.1875 76.3359375 C-48.09113281 77.14675781 -48.99476563 77.95757812 -49.92578125 78.79296875 C-66.12490105 94.09587169 -76.46420991 115.06287019 -77.5703125 137.41796875 C-77.91050958 149.63261967 -77.21181526 160.75118735 -73.1875 172.3359375 C-72.64416016 173.90988281 -72.64416016 173.90988281 -72.08984375 175.515625 C-67.40594578 187.74139257 -60.25484657 197.98627428 -51.1875 207.3359375 C-50.64867187 207.94824219 -50.10984375 208.56054688 -49.5546875 209.19140625 C-41.49021014 218.04612134 -30.09704025 223.8017931 -19.1875 228.3359375 C-21.11077064 235.02559855 -23.29129414 241.5562726 -25.76171875 248.0625 C-26.09041458 248.93619232 -26.41911041 249.80988464 -26.75776672 250.71005249 C-27.79372363 253.46153603 -28.834273 256.21125516 -29.875 258.9609375 C-30.58429075 260.84233244 -31.29327785 262.72384189 -32.00195312 264.60546875 C-33.7269663 269.18362101 -35.45609631 273.76019845 -37.1875 278.3359375 C-50.57074708 276.00029228 -63.59878349 267.48328774 -74.1875 259.3359375 C-75.12851563 258.61664063 -76.06953125 257.89734375 -77.0390625 257.15625 C-93.52758719 244.1047699 -106.77626016 228.15841717 -116.1875 209.3359375 C-121.99059032 209.84531987 -126.6453574 210.9963209 -131.9375 213.3984375 C-132.97620239 213.8637085 -132.97620239 213.8637085 -134.03588867 214.33837891 C-158.95865078 225.85534569 -178.17217728 246.91573951 -188.41308594 272.22900391 C-198.00668884 298.33013665 -197.72228305 327.04736099 -186.36328125 352.5859375 C-174.32277334 378.20020151 -153.48104226 397.91413348 -127.1875 408.3359375 C-114.16376665 412.98398368 -103.25210381 414.3359375 -89.1875 414.3359375 C-89.1875 432.4859375 -89.1875 450.6359375 -89.1875 469.3359375 C-124.6136988 466.38375427 -152.59398534 459.17793932 -182.1875 440.3359375 C-195.97174331 464.9202065 -198.6104068 493.40812418 -191.1875 520.5234375 C-186.52144876 536.27788356 -177.93176674 550.04009186 -167.1875 562.3359375 C-166.58421875 563.02816406 -165.9809375 563.72039062 -165.359375 564.43359375 C-149.02613487 581.83721612 -123.42564378 594.2924332 -99.62353516 595.46191406 C-87.14654081 595.8005784 -75.27089726 595.7511088 -63.1875 592.3359375 C-61.31384766 591.80806641 -61.31384766 591.80806641 -59.40234375 591.26953125 C-40.62739328 585.63823817 -26.17082776 574.61155758 -12.1875 561.3359375 C-9.180682 562.67593248 -7.18987391 564.13439041 -4.9375 566.5234375 C-1.91581007 569.63456434 1.23284812 572.49314179 4.515625 575.32421875 C7.30089553 577.76369889 10.02682585 580.26523951 12.75 582.7734375 C17.72188142 587.35033799 22.74248428 591.86766607 27.8125 596.3359375 C13.50252596 621.24120206 -23.19808194 637.41344981 -49.64453125 644.58984375 C-58.72966056 646.89951827 -67.87560069 648.30580017 -77.1875 649.3359375 C-78.19180864 676.31278344 -71.78601934 698.02762014 -53.44140625 718.421875 C-37.27279853 735.78896442 -14.99617933 745.91895712 8.65576172 747.26391602 C31.4375168 748.0668572 53.76735586 740.46659082 70.8125 725.3359375 C71.4828125 724.80742188 72.153125 724.27890625 72.84375 723.734375 C90.39563831 709.59535386 99.7392452 687.31648595 102.40911484 665.45947075 C103.14309591 658.63736585 103.07457612 651.79707979 103.03955078 644.94555664 C103.03898491 643.36700955 103.03930665 641.78846194 103.04043579 640.20991516 C103.04100344 635.97535371 103.02934575 631.7409084 103.01528788 627.50637364 C103.00268116 623.06215221 103.00160226 618.61792735 102.99923706 614.1736908 C102.99305123 605.78058075 102.97668015 597.38752357 102.95653808 588.99443668 C102.93408824 579.42958661 102.92316293 569.86473385 102.91314721 560.29986393 C102.89231095 540.64519162 102.85678336 520.99056978 102.8125 501.3359375 C96.5425 501.3359375 90.2725 501.3359375 83.8125 501.3359375 C83.8125 513.2159375 83.8125 525.0959375 83.8125 537.3359375 C65.6625 537.3359375 47.5125 537.3359375 28.8125 537.3359375 C28.8125 525.4559375 28.8125 513.5759375 28.8125 501.3359375 C16.9325 501.3359375 5.0525 501.3359375 -7.1875 501.3359375 C-7.1875 483.1859375 -7.1875 465.0359375 -7.1875 446.3359375 C4.6925 446.3359375 16.5725 446.3359375 28.8125 446.3359375 C28.8125 440.0659375 28.8125 433.7959375 28.8125 427.3359375 C16.9325 427.3359375 5.0525 427.3359375 -7.1875 427.3359375 C-7.1875 409.5159375 -7.1875 391.6959375 -7.1875 373.3359375 C4.6925 373.3359375 16.5725 373.3359375 28.8125 373.3359375 C28.8125 367.0659375 28.8125 360.7959375 28.8125 354.3359375 C16.9325 354.3359375 5.0525 354.3359375 -7.1875 354.3359375 C-7.1875 336.1859375 -7.1875 318.0359375 -7.1875 299.3359375 C4.6925 299.3359375 16.5725 299.3359375 28.8125 299.3359375 C28.8125 287.4559375 28.8125 275.5759375 28.8125 263.3359375 C46.9625 263.3359375 65.1125 263.3359375 83.8125 263.3359375 C83.8125 275.2159375 83.8125 287.0959375 83.8125 299.3359375 C90.0825 299.3359375 96.3525 299.3359375 102.8125 299.3359375 C102.88220853 278.80269189 102.93561703 258.26948015 102.96793652 237.73614025 C102.98334773 228.200273 103.00432615 218.66448102 103.03881836 209.12866211 C103.06889796 200.80873808 103.08811664 192.48886863 103.09476548 184.16889173 C103.0986466 179.77124442 103.10764499 175.3737531 103.12969017 170.97615623 C103.29633995 136.33489457 101.35560716 106.44264011 76.35595703 79.88818359 C59.20875016 62.64333366 36.42811863 54.11032882 12.3046875 53.24609375 C-9.82732425 54.04395624 -30.65869417 61.31710415 -47.1875 76.3359375 Z M188.8125 75.3359375 C187.80316406 76.13064453 187.80316406 76.13064453 186.7734375 76.94140625 C168.60540944 91.59887909 159.42789017 114.65256853 156.99349833 137.27941442 C156.4536684 143.41302196 156.55400424 149.57517214 156.58544922 155.72631836 C156.58601509 157.30486545 156.58569335 158.88341306 156.58456421 160.46195984 C156.58399656 164.69652129 156.59565425 168.9309666 156.60971212 173.16550136 C156.62231884 177.60972279 156.62339774 182.05394765 156.62576294 186.4981842 C156.63194877 194.89129425 156.64831985 203.28435143 156.66846192 211.67743832 C156.69091176 221.24228839 156.70183707 230.80714115 156.71185279 240.37201107 C156.73268905 260.02668338 156.76821664 279.68130522 156.8125 299.3359375 C163.0825 299.3359375 169.3525 299.3359375 175.8125 299.3359375 C175.8125 287.4559375 175.8125 275.5759375 175.8125 263.3359375 C193.9625 263.3359375 212.1125 263.3359375 230.8125 263.3359375 C230.8125 275.2159375 230.8125 287.0959375 230.8125 299.3359375 C242.6925 299.3359375 254.5725 299.3359375 266.8125 299.3359375 C266.8125 317.4859375 266.8125 335.6359375 266.8125 354.3359375 C254.9325 354.3359375 243.0525 354.3359375 230.8125 354.3359375 C230.8125 360.6059375 230.8125 366.8759375 230.8125 373.3359375 C242.6925 373.3359375 254.5725 373.3359375 266.8125 373.3359375 C266.8125 391.1559375 266.8125 408.9759375 266.8125 427.3359375 C254.9325 427.3359375 243.0525 427.3359375 230.8125 427.3359375 C230.8125 433.6059375 230.8125 439.8759375 230.8125 446.3359375 C242.6925 446.3359375 254.5725 446.3359375 266.8125 446.3359375 C266.8125 464.4859375 266.8125 482.6359375 266.8125 501.3359375 C254.9325 501.3359375 243.0525 501.3359375 230.8125 501.3359375 C230.8125 513.2159375 230.8125 525.0959375 230.8125 537.3359375 C212.6625 537.3359375 194.5125 537.3359375 175.8125 537.3359375 C175.8125 525.4559375 175.8125 513.5759375 175.8125 501.3359375 C169.5425 501.3359375 163.2725 501.3359375 156.8125 501.3359375 C156.74279147 521.86918311 156.68938297 542.40239485 156.65706348 562.93573475 C156.64165227 572.471602 156.62067385 582.00739398 156.58618164 591.54321289 C156.55610204 599.86313692 156.53688336 608.18300637 156.53023452 616.50298327 C156.5263534 620.90063058 156.51735501 625.2981219 156.49530983 629.69571877 C156.32866005 664.33698043 158.26939284 694.22923489 183.26904297 720.78369141 C199.92244586 737.53192544 222.40808179 746.628838 245.91796875 747.40234375 C268.50784463 747.01716031 289.93685627 739.66992373 306.8125 724.3359375 C307.71613281 723.52511719 308.61976563 722.71429687 309.55078125 721.87890625 C324.0740053 708.15918007 336.23088046 687.36426707 336.88818359 666.98999023 C336.91067863 664.31283128 336.89982357 661.63806352 336.875 658.9609375 C336.86823242 657.57068359 336.86823242 657.57068359 336.86132812 656.15234375 C336.84961574 653.88014041 336.83321372 651.60807362 336.8125 649.3359375 C335.54277344 649.16578125 334.27304687 648.995625 332.96484375 648.8203125 C302.9033405 644.65415632 274.53219718 634.74296246 250.8125 615.3359375 C250.26190918 614.89072754 249.71131836 614.44551758 249.14404297 613.98681641 C242.83348923 608.86866895 236.82609559 603.78198897 231.8125 597.3359375 C235.41218229 592.9263267 239.07875902 589.10090344 243.41015625 585.41796875 C246.44136406 582.79092199 249.37460834 580.06641392 252.3125 577.3359375 C256.55685512 573.39714667 260.83148163 569.5096061 265.2265625 565.73828125 C266.82094351 564.32847144 268.32377265 562.85624392 269.8125 561.3359375 C272.73142309 562.63880446 274.57216512 563.95761504 276.6875 566.3359375 C293.59201394 583.59935832 319.52095686 594.84474862 343.609375 595.63671875 C345.5936603 595.65598685 347.5781522 595.65953762 349.5625 595.6484375 C351.13729126 595.64106567 351.13729126 595.64106567 352.74389648 595.63354492 C361.11201701 595.50803277 368.72601684 594.61083652 376.8125 592.3359375 C378.63394531 591.84287109 378.63394531 591.84287109 380.4921875 591.33984375 C393.89801727 587.31252067 406.22192946 580.50239723 416.8125 571.3359375 C417.59625 570.69527344 418.38 570.05460938 419.1875 569.39453125 C439.3004281 552.32996881 451.40806476 527.82618895 454.53515625 501.796875 C456.26703609 480.18496595 452.42903263 459.27057817 441.8125 440.3359375 C441.12027344 440.7484375 440.42804688 441.1609375 439.71484375 441.5859375 C436.42748372 443.52630284 433.12368592 445.43666419 429.8125 447.3359375 C429.24015625 447.66722656 428.6678125 447.99851562 428.078125 448.33984375 C403.01158732 462.73616607 377.83422922 466.91746006 348.8125 469.3359375 C348.8125 451.1859375 348.8125 433.0359375 348.8125 414.3359375 C353.4325 414.3359375 358.0525 414.3359375 362.8125 414.3359375 C365.95896737 413.88209571 368.82376641 413.40750926 371.875 412.6484375 C372.63538574 412.46692139 373.39577148 412.28540527 374.17919922 412.09838867 C392.76053961 407.48731843 409.00362942 398.52515028 422.8125 385.3359375 C423.75738281 384.43359375 424.70226562 383.53125 425.67578125 382.6015625 C445.76818393 362.02603274 455.24465793 334.71209341 454.9609375 306.2265625 C454.08951809 283.38620119 445.56455313 260.80157899 430.8125 243.3359375 C429.65621094 241.93601563 429.65621094 241.93601563 428.4765625 240.5078125 C416.57629878 226.72045194 398.82634134 213.65081072 380.8125 209.3359375 C379.14669018 209.28250148 377.47777763 209.26790662 375.8125 209.3359375 C375.33941406 210.20734375 374.86632812 211.07875 374.37890625 211.9765625 C357.81162518 242.01935827 331.9566403 265.80114719 299.8125 278.3359375 C298.8225 278.3359375 297.8325 278.3359375 296.8125 278.3359375 C294.24443656 271.53834514 291.68146177 264.73885048 289.12207031 257.93798828 C288.2502044 255.62309002 287.3771605 253.30863508 286.50292969 250.99462891 C285.24887459 247.67465311 283.9990199 244.35312283 282.75 241.03125 C282.15940796 239.47182175 282.15940796 239.47182175 281.55688477 237.88088989 C281.19651123 236.92004486 280.8361377 235.95919983 280.46484375 234.96923828 C279.98519165 233.69682785 279.98519165 233.69682785 279.49584961 232.39871216 C278.8125 230.3359375 278.8125 230.3359375 278.8125 228.3359375 C279.83988281 227.85125 280.86726562 227.3665625 281.92578125 226.8671875 C304.87469175 215.85393311 322.82688603 199.67335688 331.8125 175.3359375 C340.10176397 149.3160784 338.53455934 124.83633996 326.32421875 100.3515625 C321.90316162 92.20584387 316.31038724 85.84284959 309.8125 79.3359375 C309.008125 78.51996094 308.20375 77.70398438 307.375 76.86328125 C274.99028343 45.81017309 222.01048944 46.27313622 188.8125 75.3359375 Z M83.8125 354.3359375 C83.8125 384.6959375 83.8125 415.0559375 83.8125 446.3359375 C114.1725 446.3359375 144.5325 446.3359375 175.8125 446.3359375 C175.8125 415.9759375 175.8125 385.6159375 175.8125 354.3359375 C145.4525 354.3359375 115.0925 354.3359375 83.8125 354.3359375 Z " fill="#FFFFFF" transform="translate(270.1875,-0.3359375)"/>
</svg>
